EMG
version=1
nRows=17
nColumns=17
inDegrees=no
endheader
time	EMG01_right_gast_med	EMG02_right_glut_max	EMG03_left_gast_med	EMG04_left_glut_max	EMG05_right_glut_med	EMG06_right_bic_fem	EMG07_right_rect_fem	EMG08_right_vast_lat	EMG09_right_vast_med	EMG10_right_tens_fasc_lat	EMG11_left_glut_med	EMG12_left_bic_fem	EMG13_left_rect_fem	EMG14_left_vast_lat	EMG15_left_vast_med	EMG16_left_tens_fasc_lat
      1.07000000	     -6.90503788	     -4.74989510	    635.54455566	    -13.66254330	    126.77879333	     47.15854263	     -8.50782394	    -13.07542229	     -6.50472832	      8.51888847	     -1.00657129	     14.83833218	    -17.14251328	     -0.14401394	    -41.12562180	   -119.27404022
      1.08000000	    -13.09078884	    -11.67649364	    144.01654053	    -56.77460861	     52.50359726	    -30.67341614	     -5.40037584	    -13.18586159	    -10.26532936	     11.12792206	     19.23022079	     12.12156487	      3.88132834	     -9.45248985	    -34.66450500	   -132.65777588
      1.09000000	    -22.62662697	    -20.39173698	     43.97282028	    -76.44718170	     76.52799225	    -66.10380554	      1.34173298	    -14.74584675	    -28.46130180	     -1.67994571	    -11.18112564	    -11.01579857	    -18.57870102	      3.27464390	     -6.84146309	   -116.89259338
      1.10000000	    -10.70761108	    -54.98355103	    -66.17320251	    -78.27704620	    112.23229980	    -55.10474014	      1.27966261	    -15.37589645	    -40.45205688	    -43.01098251	     -4.60591412	    -29.83360291	      4.15319490	     17.11431885	     30.32794762	    -68.67091370
      1.11000000	    -13.63143635	    -71.49751282	     18.41659355	    -61.19292831	    177.14213562	    -35.65533447	      3.13229370	    -15.67471218	    -40.69626236	    -80.97789764	      8.16432381	     -1.72720075	     15.00898075	     -2.80273914	     41.48844528	    -36.21734238
      1.12000000	    -19.19609642	   -106.75051117	    181.09071350	    -43.13665390	    120.92804718	     70.88732910	     -6.24404240	    -16.57208443	    -27.95764351	    -97.38476562	      3.41849232	     -5.65646124	     -2.71351194	      5.51096725	     62.90334702	    -21.81450462
      1.13000000	    -28.64935493	    -35.27934265	   -255.72921753	    -40.80251312	    -38.43407440	     -8.61496830	     11.79763889	     -3.55438423	    -19.89965439	    -90.29966736	    -14.93466187	      6.48557091	     -3.51094699	    -15.67088604	     54.05059814	    -21.64613724
      1.14000000	    -18.60737419	      0.91712862	   -308.98953247	    -42.36878586	   -119.36469269	    -30.17803955	     -5.94805336	    -14.04832172	    -33.12725449	    -48.59923172	     -6.78658867	      9.66108608	      2.89841747	      0.08008504	     64.86373138	      2.87899780
      1.15000000	    -15.31572437	      7.53140974	    649.08441162	    -50.88741302	   -164.20582581	     31.03129005	    -15.30199623	    -15.69131660	    -38.19550323	    -41.31737900	      9.33853245	      7.65921307	      1.30628562	     -1.20849609	     35.35391617	     -1.06155968
      1.16000000	     -6.33736706	     51.79730988	    -92.49944305	    -39.05189514	   -176.75480652	    -24.48540688	    -23.47498322	    -35.33626556	    -48.90458679	     -5.98851442	      4.12235451	     -4.04667568	    -15.92188263	    -27.92282677	     13.50878429	     15.03108597
      1.17000000	      2.28480887	      7.94879580	     54.87351227	    -34.11189270	   -176.12110901	     10.35108662	    -24.53414154	      7.69934416	    -32.88683701	     52.33711624	      0.94477057	     -2.92388701	    -14.66475677	    -10.19185162	     -3.78536463	     25.95454597
      1.18000000	      9.44716549	     17.28528786	     41.26553345	    -18.18937492	   -210.77616882	     74.93132782	    -22.91011620	     12.21759129	    -41.18500900	     94.98210144	     -6.07137442	    -12.14843369	    -22.26178169	     -5.87261486	     -9.15911674	     -7.90462303
      1.19000000	     16.88636017	     28.62764549	    -21.68480682	      1.03080833	   -302.49176025	     23.14818954	    -25.37262344	     23.83816528	    -38.22760010	    115.72848511	     -0.99811339	     -8.53339005	    -14.04565048	     -3.11910582	     -9.16464806	    -22.98515320
      1.20000000	     26.32381058	     46.87113190	     70.44407654	     17.68751335	   -253.08253479	     78.95958710	    -28.49020576	     -1.45855284	     42.82260895	    103.79766846	     -7.31266403	     -6.01596594	     -2.69356346	     -3.03374624	    -19.76047516	     -4.88262510
      1.21000000	     17.26420975	     42.70327377	     -4.26467323	     22.03960228	     87.46986389	   -101.80854797	    -10.56408501	      6.09286833	    200.67605591	     53.24267578	     -3.35214758	     -9.05442238	      3.25861859	     -0.68444490	    -24.24909210	    -17.01760292
      1.22000000	     14.99347019	      5.99589872	     -0.59822464	     31.70798111	    138.61785889	     90.99643707	    -11.98575020	    -10.16700649	    269.22259521	     20.61508560	     -2.72964215	     -7.50800323	      3.26474762	     -2.14794254	    -21.45681763	    -44.37918091
      1.23000000	     -7.76913452	    -23.80663300	     -4.78413534	     40.87316895	    -52.58722687	     12.63706779	      0.84985518	      0.48925841	    -95.94084930	    -59.49714661	    -13.29877853	    -15.16703033	      3.26819372	     -2.03841162	    -33.65176773	    -70.29883575
